<mxfile host="app.diagrams.net" modified="2021-04-04T13:37:14.348Z" agent="5.0 (X11; Linux x86_64) AppleWebKit/537.36 (KHTML, like Gecko) Chrome/89.0.4389.114 Safari/537.36" etag="674uwfg9DiKfrkayqMh6" version="14.5.7" type="github">
  <diagram id="8d-3fIY-xKLBhlBK9Z72" name="Page-1">
    <mxGraphModel dx="1117" dy="2164" grid="1" gridSize="10" guides="1" tooltips="1" connect="1" arrows="1" fold="1" page="1" pageScale="1" pageWidth="850" pageHeight="1100" math="0" shadow="0">
      <root>
        <mxCell id="0" />
        <mxCell id="7ALV5jei1pQc-AYIu4Ic-1" value="Background" style="locked=1;" parent="0" />
        <mxCell id="7ALV5jei1pQc-AYIu4Ic-3" value="" style="rounded=0;whiteSpace=wrap;html=1;" vertex="1" parent="7ALV5jei1pQc-AYIu4Ic-1">
          <mxGeometry x="20" y="-120" width="1070" height="900" as="geometry" />
        </mxCell>
        <mxCell id="1" value="Elements" style="" parent="0" />
        <mxCell id="aUiP8YorQjEKPf9iPdD1-36" value="Run on Executor Nodes" style="shape=umlFrame;whiteSpace=wrap;html=1;width=150;height=21;" parent="1" vertex="1">
          <mxGeometry x="260" y="559" width="770" height="179" as="geometry" />
        </mxCell>
        <mxCell id="aUiP8YorQjEKPf9iPdD1-9" value="get a &quot;table&quot; for Spark" style="edgeStyle=orthogonalEdgeStyle;rounded=0;orthogonalLoop=1;jettySize=auto;html=1;entryX=0.5;entryY=0;entryDx=0;entryDy=0;fontStyle=2" parent="1" source="aUiP8YorQjEKPf9iPdD1-1" target="aUiP8YorQjEKPf9iPdD1-5" edge="1">
          <mxGeometry x="-0.1905" y="63" relative="1" as="geometry">
            <mxPoint as="offset" />
          </mxGeometry>
        </mxCell>
        <mxCell id="aUiP8YorQjEKPf9iPdD1-14" style="edgeStyle=orthogonalEdgeStyle;rounded=0;orthogonalLoop=1;jettySize=auto;html=1;" parent="1" source="aUiP8YorQjEKPf9iPdD1-5" target="aUiP8YorQjEKPf9iPdD1-10" edge="1">
          <mxGeometry relative="1" as="geometry" />
        </mxCell>
        <mxCell id="aUiP8YorQjEKPf9iPdD1-19" value="creates the batch write manager" style="edgeStyle=orthogonalEdgeStyle;rounded=0;orthogonalLoop=1;jettySize=auto;html=1;fontStyle=2" parent="1" source="aUiP8YorQjEKPf9iPdD1-10" target="aUiP8YorQjEKPf9iPdD1-15" edge="1">
          <mxGeometry relative="1" as="geometry" />
        </mxCell>
        <mxCell id="aUiP8YorQjEKPf9iPdD1-24" value="sends factories to all executor nodes" style="edgeStyle=orthogonalEdgeStyle;rounded=0;orthogonalLoop=1;jettySize=auto;html=1;fontStyle=2" parent="1" source="aUiP8YorQjEKPf9iPdD1-15" target="aUiP8YorQjEKPf9iPdD1-20" edge="1">
          <mxGeometry x="0.0011" y="31" relative="1" as="geometry">
            <mxPoint x="-9" y="-21" as="offset" />
          </mxGeometry>
        </mxCell>
        <mxCell id="aUiP8YorQjEKPf9iPdD1-29" style="edgeStyle=orthogonalEdgeStyle;rounded=0;orthogonalLoop=1;jettySize=auto;html=1;" parent="1" source="aUiP8YorQjEKPf9iPdD1-21" target="aUiP8YorQjEKPf9iPdD1-25" edge="1">
          <mxGeometry relative="1" as="geometry" />
        </mxCell>
        <mxCell id="aUiP8YorQjEKPf9iPdD1-39" value="creates" style="text;html=1;align=center;verticalAlign=middle;resizable=0;points=[];labelBackgroundColor=#ffffff;fontStyle=2" parent="aUiP8YorQjEKPf9iPdD1-29" vertex="1" connectable="0">
          <mxGeometry x="0.3413" relative="1" as="geometry">
            <mxPoint x="-24.17" y="-12" as="offset" />
          </mxGeometry>
        </mxCell>
        <mxCell id="aUiP8YorQjEKPf9iPdD1-34" value="creates and send commit messages to batch writer" style="edgeStyle=orthogonalEdgeStyle;rounded=0;orthogonalLoop=1;jettySize=auto;html=1;fontStyle=2" parent="1" source="aUiP8YorQjEKPf9iPdD1-25" target="aUiP8YorQjEKPf9iPdD1-30" edge="1">
          <mxGeometry x="0.4118" y="-20" relative="1" as="geometry">
            <mxPoint as="offset" />
          </mxGeometry>
        </mxCell>
        <mxCell id="aUiP8YorQjEKPf9iPdD1-35" value="are received by" style="edgeStyle=orthogonalEdgeStyle;rounded=0;orthogonalLoop=1;jettySize=auto;html=1;fontStyle=2" parent="1" source="aUiP8YorQjEKPf9iPdD1-30" target="aUiP8YorQjEKPf9iPdD1-15" edge="1">
          <mxGeometry x="0.088" y="-8" relative="1" as="geometry">
            <mxPoint as="offset" />
          </mxGeometry>
        </mxCell>
        <mxCell id="aUiP8YorQjEKPf9iPdD1-57" style="edgeStyle=orthogonalEdgeStyle;rounded=0;orthogonalLoop=1;jettySize=auto;html=1;fontSize=10;fontColor=none;" parent="1" source="aUiP8YorQjEKPf9iPdD1-20" target="aUiP8YorQjEKPf9iPdD1-53" edge="1">
          <mxGeometry relative="1" as="geometry">
            <Array as="points">
              <mxPoint x="90" y="657" />
            </Array>
          </mxGeometry>
        </mxCell>
        <mxCell id="aUiP8YorQjEKPf9iPdD1-58" value="uses" style="text;html=1;align=center;verticalAlign=middle;resizable=0;points=[];labelBackgroundColor=#ffffff;fontSize=10;fontColor=none;fontStyle=2" parent="aUiP8YorQjEKPf9iPdD1-57" vertex="1" connectable="0">
          <mxGeometry x="-0.5355" y="-2" relative="1" as="geometry">
            <mxPoint as="offset" />
          </mxGeometry>
        </mxCell>
        <mxCell id="aUiP8YorQjEKPf9iPdD1-20" value="&lt;Serializable&gt;&#xa;SQSSinkDataWriterFactory" style="swimlane;fontStyle=1;align=center;verticalAlign=top;childLayout=stackLayout;horizontal=1;startSize=38;horizontalStack=0;resizeParent=1;resizeParentMax=0;resizeLast=0;collapsible=1;marginBottom=0;" parent="1" vertex="1">
          <mxGeometry x="290" y="608" width="295" height="98" as="geometry" />
        </mxCell>
        <mxCell id="aUiP8YorQjEKPf9iPdD1-21" value="+ options: SQSSinkOptions" style="text;strokeColor=none;fillColor=none;align=left;verticalAlign=top;spacingLeft=4;spacingRight=4;overflow=hidden;rotatable=0;points=[[0,0.5],[1,0.5]];portConstraint=eastwest;" parent="aUiP8YorQjEKPf9iPdD1-20" vertex="1">
          <mxGeometry y="38" width="295" height="26" as="geometry" />
        </mxCell>
        <mxCell id="aUiP8YorQjEKPf9iPdD1-22" value="" style="line;strokeWidth=1;fillColor=none;align=left;verticalAlign=middle;spacingTop=-1;spacingLeft=3;spacingRight=3;rotatable=0;labelPosition=right;points=[];portConstraint=eastwest;" parent="aUiP8YorQjEKPf9iPdD1-20" vertex="1">
          <mxGeometry y="64" width="295" height="8" as="geometry" />
        </mxCell>
        <mxCell id="aUiP8YorQjEKPf9iPdD1-23" value="+ createWriter(partitionId,taskId): SQSSinkDataWriter" style="text;strokeColor=none;fillColor=none;align=left;verticalAlign=top;spacingLeft=4;spacingRight=4;overflow=hidden;rotatable=0;points=[[0,0.5],[1,0.5]];portConstraint=eastwest;" parent="aUiP8YorQjEKPf9iPdD1-20" vertex="1">
          <mxGeometry y="72" width="295" height="26" as="geometry" />
        </mxCell>
        <mxCell id="aUiP8YorQjEKPf9iPdD1-25" value="SQSSinkDataWriter" style="swimlane;fontStyle=1;align=center;verticalAlign=top;childLayout=stackLayout;horizontal=1;startSize=26;horizontalStack=0;resizeParent=1;resizeParentMax=0;resizeLast=0;collapsible=1;marginBottom=0;" parent="1" vertex="1">
          <mxGeometry x="710" y="600" width="300" height="118" as="geometry" />
        </mxCell>
        <mxCell id="aUiP8YorQjEKPf9iPdD1-26" value="+ sqs: AmazonSQS&#xa;- messages: List&lt;SendMessageBatchRequestEntry&gt;" style="text;strokeColor=none;fillColor=none;align=left;verticalAlign=top;spacingLeft=4;spacingRight=4;overflow=hidden;rotatable=0;points=[[0,0.5],[1,0.5]];portConstraint=eastwest;" parent="aUiP8YorQjEKPf9iPdD1-25" vertex="1">
          <mxGeometry y="26" width="300" height="34" as="geometry" />
        </mxCell>
        <mxCell id="aUiP8YorQjEKPf9iPdD1-27" value="" style="line;strokeWidth=1;fillColor=none;align=left;verticalAlign=middle;spacingTop=-1;spacingLeft=3;spacingRight=3;rotatable=0;labelPosition=right;points=[];portConstraint=eastwest;" parent="aUiP8YorQjEKPf9iPdD1-25" vertex="1">
          <mxGeometry y="60" width="300" height="8" as="geometry" />
        </mxCell>
        <mxCell id="aUiP8YorQjEKPf9iPdD1-28" value="+ write(InternalRow): void&#xa;+ commit(): SQSSinkWriterCommitMessage&#xa;- sendMessages()" style="text;strokeColor=none;fillColor=none;align=left;verticalAlign=top;spacingLeft=4;spacingRight=4;overflow=hidden;rotatable=0;points=[[0,0.5],[1,0.5]];portConstraint=eastwest;" parent="aUiP8YorQjEKPf9iPdD1-25" vertex="1">
          <mxGeometry y="68" width="300" height="50" as="geometry" />
        </mxCell>
        <mxCell id="aUiP8YorQjEKPf9iPdD1-30" value="SQSSinkWriterCommitMessage" style="swimlane;fontStyle=1;align=center;verticalAlign=top;childLayout=stackLayout;horizontal=1;startSize=26;horizontalStack=0;resizeParent=1;resizeParentMax=0;resizeLast=0;collapsible=1;marginBottom=0;" parent="1" vertex="1">
          <mxGeometry x="755" y="421" width="210" height="94" as="geometry" />
        </mxCell>
        <mxCell id="aUiP8YorQjEKPf9iPdD1-31" value="- partitionId: int&#xa;- taskId: long" style="text;strokeColor=none;fillColor=none;align=left;verticalAlign=top;spacingLeft=4;spacingRight=4;overflow=hidden;rotatable=0;points=[[0,0.5],[1,0.5]];portConstraint=eastwest;" parent="aUiP8YorQjEKPf9iPdD1-30" vertex="1">
          <mxGeometry y="26" width="210" height="34" as="geometry" />
        </mxCell>
        <mxCell id="aUiP8YorQjEKPf9iPdD1-32" value="" style="line;strokeWidth=1;fillColor=none;align=left;verticalAlign=middle;spacingTop=-1;spacingLeft=3;spacingRight=3;rotatable=0;labelPosition=right;points=[];portConstraint=eastwest;" parent="aUiP8YorQjEKPf9iPdD1-30" vertex="1">
          <mxGeometry y="60" width="210" height="8" as="geometry" />
        </mxCell>
        <mxCell id="aUiP8YorQjEKPf9iPdD1-33" value="+" style="text;strokeColor=none;fillColor=none;align=left;verticalAlign=top;spacingLeft=4;spacingRight=4;overflow=hidden;rotatable=0;points=[[0,0.5],[1,0.5]];portConstraint=eastwest;noLabel=1;fontColor=none;" parent="aUiP8YorQjEKPf9iPdD1-30" vertex="1">
          <mxGeometry y="68" width="210" height="26" as="geometry" />
        </mxCell>
        <mxCell id="aUiP8YorQjEKPf9iPdD1-55" style="edgeStyle=orthogonalEdgeStyle;rounded=0;orthogonalLoop=1;jettySize=auto;html=1;entryX=0.625;entryY=0.962;entryDx=0;entryDy=0;entryPerimeter=0;fontSize=10;fontColor=none;" parent="1" source="aUiP8YorQjEKPf9iPdD1-15" target="aUiP8YorQjEKPf9iPdD1-53" edge="1">
          <mxGeometry relative="1" as="geometry">
            <Array as="points">
              <mxPoint x="140" y="460" />
            </Array>
          </mxGeometry>
        </mxCell>
        <mxCell id="aUiP8YorQjEKPf9iPdD1-56" value="uses" style="text;html=1;align=center;verticalAlign=middle;resizable=0;points=[];labelBackgroundColor=#ffffff;fontSize=10;fontColor=none;fontStyle=2" parent="aUiP8YorQjEKPf9iPdD1-55" vertex="1" connectable="0">
          <mxGeometry x="-0.3171" y="2" relative="1" as="geometry">
            <mxPoint y="-3" as="offset" />
          </mxGeometry>
        </mxCell>
        <mxCell id="aUiP8YorQjEKPf9iPdD1-15" value="SQSSinkBatchWrite" style="swimlane;fontStyle=1;align=center;verticalAlign=top;childLayout=stackLayout;horizontal=1;startSize=26;horizontalStack=0;resizeParent=1;resizeParentMax=0;resizeLast=0;collapsible=1;marginBottom=0;" parent="1" vertex="1">
          <mxGeometry x="276.25" y="413" width="322.5" height="110" as="geometry" />
        </mxCell>
        <mxCell id="aUiP8YorQjEKPf9iPdD1-16" value="+ options: SQSSinkOptions" style="text;strokeColor=none;fillColor=none;align=left;verticalAlign=top;spacingLeft=4;spacingRight=4;overflow=hidden;rotatable=0;points=[[0,0.5],[1,0.5]];portConstraint=eastwest;" parent="aUiP8YorQjEKPf9iPdD1-15" vertex="1">
          <mxGeometry y="26" width="322.5" height="26" as="geometry" />
        </mxCell>
        <mxCell id="aUiP8YorQjEKPf9iPdD1-17" value="" style="line;strokeWidth=1;fillColor=none;align=left;verticalAlign=middle;spacingTop=-1;spacingLeft=3;spacingRight=3;rotatable=0;labelPosition=right;points=[];portConstraint=eastwest;" parent="aUiP8YorQjEKPf9iPdD1-15" vertex="1">
          <mxGeometry y="52" width="322.5" height="8" as="geometry" />
        </mxCell>
        <mxCell id="aUiP8YorQjEKPf9iPdD1-18" value="+ createBatchWriterFactory(...): SQSSinkDataWriterFactory&#xa;+ commit (SQSSinkWriterCommitMessage[])&#xa;+ abort (SQSSinkWriterCommitMessage[])" style="text;strokeColor=none;fillColor=none;align=left;verticalAlign=top;spacingLeft=4;spacingRight=4;overflow=hidden;rotatable=0;points=[[0,0.5],[1,0.5]];portConstraint=eastwest;" parent="aUiP8YorQjEKPf9iPdD1-15" vertex="1">
          <mxGeometry y="60" width="322.5" height="50" as="geometry" />
        </mxCell>
        <mxCell id="aUiP8YorQjEKPf9iPdD1-42" value="Defines how to write data in a batch process" style="shape=note;whiteSpace=wrap;html=1;size=14;verticalAlign=top;align=left;spacingTop=-6;fontSize=10;fillColor=#fff2cc;strokeColor=#d6b656;" parent="1" vertex="1">
          <mxGeometry x="540" y="390" width="90" height="40" as="geometry" />
        </mxCell>
        <mxCell id="aUiP8YorQjEKPf9iPdD1-43" value="This class will call AWS to put messages on the queue (each partition will have its own instance)" style="shape=note;whiteSpace=wrap;html=1;size=14;verticalAlign=top;align=left;spacingTop=-6;fontSize=9;fillColor=#fff2cc;strokeColor=#d6b656;" parent="1" vertex="1">
          <mxGeometry x="930" y="706" width="140" height="43" as="geometry" />
        </mxCell>
        <mxCell id="aUiP8YorQjEKPf9iPdD1-10" value="SQSSinkWriteBuilder" style="swimlane;fontStyle=1;align=center;verticalAlign=top;childLayout=stackLayout;horizontal=1;startSize=26;horizontalStack=0;resizeParent=1;resizeParentMax=0;resizeLast=0;collapsible=1;marginBottom=0;" parent="1" vertex="1">
          <mxGeometry x="337.5" y="240" width="212.5" height="86" as="geometry" />
        </mxCell>
        <mxCell id="aUiP8YorQjEKPf9iPdD1-11" value="+ field: type" style="text;strokeColor=none;fillColor=none;align=left;verticalAlign=top;spacingLeft=4;spacingRight=4;overflow=hidden;rotatable=0;points=[[0,0.5],[1,0.5]];portConstraint=eastwest;noLabel=1;fontColor=none;" parent="aUiP8YorQjEKPf9iPdD1-10" vertex="1">
          <mxGeometry y="26" width="212.5" height="26" as="geometry" />
        </mxCell>
        <mxCell id="aUiP8YorQjEKPf9iPdD1-12" value="" style="line;strokeWidth=1;fillColor=none;align=left;verticalAlign=middle;spacingTop=-1;spacingLeft=3;spacingRight=3;rotatable=0;labelPosition=right;points=[];portConstraint=eastwest;" parent="aUiP8YorQjEKPf9iPdD1-10" vertex="1">
          <mxGeometry y="52" width="212.5" height="8" as="geometry" />
        </mxCell>
        <mxCell id="aUiP8YorQjEKPf9iPdD1-13" value="+buildForBatch(): SQSSinkBatchWrite" style="text;strokeColor=none;fillColor=none;align=left;verticalAlign=top;spacingLeft=4;spacingRight=4;overflow=hidden;rotatable=0;points=[[0,0.5],[1,0.5]];portConstraint=eastwest;" parent="aUiP8YorQjEKPf9iPdD1-10" vertex="1">
          <mxGeometry y="60" width="212.5" height="26" as="geometry" />
        </mxCell>
        <mxCell id="aUiP8YorQjEKPf9iPdD1-54" value="create options object" style="edgeStyle=orthogonalEdgeStyle;rounded=0;orthogonalLoop=1;jettySize=auto;html=1;fontSize=10;fontColor=none;fontStyle=2" parent="1" source="aUiP8YorQjEKPf9iPdD1-11" target="aUiP8YorQjEKPf9iPdD1-50" edge="1">
          <mxGeometry relative="1" as="geometry" />
        </mxCell>
        <mxCell id="aUiP8YorQjEKPf9iPdD1-50" value="&lt;Serializable&gt;&#xa;SQSSinkOptions" style="swimlane;fontStyle=1;align=center;verticalAlign=top;childLayout=stackLayout;horizontal=1;startSize=32;horizontalStack=0;resizeParent=1;resizeParentMax=0;resizeLast=0;collapsible=1;marginBottom=0;fontSize=10;fontColor=none;" parent="1" vertex="1">
          <mxGeometry x="40" y="207" width="160" height="144" as="geometry" />
        </mxCell>
        <mxCell id="aUiP8YorQjEKPf9iPdD1-51" value="- accessKey: String&#xa;- secretKey: String&#xa;- region: String&#xa;- queueName: String&#xa;- batchSize: int" style="text;strokeColor=none;fillColor=none;align=left;verticalAlign=top;spacingLeft=4;spacingRight=4;overflow=hidden;rotatable=0;points=[[0,0.5],[1,0.5]];portConstraint=eastwest;" parent="aUiP8YorQjEKPf9iPdD1-50" vertex="1">
          <mxGeometry y="32" width="160" height="78" as="geometry" />
        </mxCell>
        <mxCell id="aUiP8YorQjEKPf9iPdD1-52" value="" style="line;strokeWidth=1;fillColor=none;align=left;verticalAlign=middle;spacingTop=-1;spacingLeft=3;spacingRight=3;rotatable=0;labelPosition=right;points=[];portConstraint=eastwest;" parent="aUiP8YorQjEKPf9iPdD1-50" vertex="1">
          <mxGeometry y="110" width="160" height="8" as="geometry" />
        </mxCell>
        <mxCell id="aUiP8YorQjEKPf9iPdD1-53" value="+ method(type): type" style="text;strokeColor=none;fillColor=none;align=left;verticalAlign=top;spacingLeft=4;spacingRight=4;overflow=hidden;rotatable=0;points=[[0,0.5],[1,0.5]];portConstraint=eastwest;noLabel=1;fontColor=none;" parent="aUiP8YorQjEKPf9iPdD1-50" vertex="1">
          <mxGeometry y="118" width="160" height="26" as="geometry" />
        </mxCell>
        <mxCell id="aUiP8YorQjEKPf9iPdD1-5" value="SQSSinkTable" style="swimlane;fontStyle=1;align=center;verticalAlign=top;childLayout=stackLayout;horizontal=1;startSize=26;horizontalStack=0;resizeParent=1;resizeParentMax=0;resizeLast=0;collapsible=1;marginBottom=0;" parent="1" vertex="1">
          <mxGeometry x="318.75" y="80" width="250" height="86" as="geometry" />
        </mxCell>
        <mxCell id="aUiP8YorQjEKPf9iPdD1-6" value="+ capabilities: Set&lt;TableCapability&gt;" style="text;strokeColor=none;fillColor=none;align=left;verticalAlign=top;spacingLeft=4;spacingRight=4;overflow=hidden;rotatable=0;points=[[0,0.5],[1,0.5]];portConstraint=eastwest;" parent="aUiP8YorQjEKPf9iPdD1-5" vertex="1">
          <mxGeometry y="26" width="250" height="26" as="geometry" />
        </mxCell>
        <mxCell id="aUiP8YorQjEKPf9iPdD1-7" value="" style="line;strokeWidth=1;fillColor=none;align=left;verticalAlign=middle;spacingTop=-1;spacingLeft=3;spacingRight=3;rotatable=0;labelPosition=right;points=[];portConstraint=eastwest;" parent="aUiP8YorQjEKPf9iPdD1-5" vertex="1">
          <mxGeometry y="52" width="250" height="8" as="geometry" />
        </mxCell>
        <mxCell id="aUiP8YorQjEKPf9iPdD1-8" value="+newWriteBuilder(...): SQSSinkWriteBuilder" style="text;strokeColor=none;fillColor=none;align=left;verticalAlign=top;spacingLeft=4;spacingRight=4;overflow=hidden;rotatable=0;points=[[0,0.5],[1,0.5]];portConstraint=eastwest;" parent="aUiP8YorQjEKPf9iPdD1-5" vertex="1">
          <mxGeometry y="60" width="250" height="26" as="geometry" />
        </mxCell>
        <mxCell id="aUiP8YorQjEKPf9iPdD1-1" value="SQSSinkProvider" style="swimlane;fontStyle=1;align=center;verticalAlign=top;childLayout=stackLayout;horizontal=1;startSize=26;horizontalStack=0;resizeParent=1;resizeParentMax=0;resizeLast=0;collapsible=1;marginBottom=0;" parent="1" vertex="1">
          <mxGeometry x="341.25" y="-90" width="205" height="86" as="geometry" />
        </mxCell>
        <mxCell id="aUiP8YorQjEKPf9iPdD1-2" value="+ capabilities: Set&lt;TableCapability&gt;" style="text;strokeColor=none;fillColor=none;align=left;verticalAlign=top;spacingLeft=4;spacingRight=4;overflow=hidden;rotatable=0;points=[[0,0.5],[1,0.5]];portConstraint=eastwest;fontColor=none;noLabel=1;" parent="aUiP8YorQjEKPf9iPdD1-1" vertex="1">
          <mxGeometry y="26" width="205" height="26" as="geometry" />
        </mxCell>
        <mxCell id="aUiP8YorQjEKPf9iPdD1-3" value="" style="line;strokeWidth=1;fillColor=none;align=left;verticalAlign=middle;spacingTop=-1;spacingLeft=3;spacingRight=3;rotatable=0;labelPosition=right;points=[];portConstraint=eastwest;" parent="aUiP8YorQjEKPf9iPdD1-1" vertex="1">
          <mxGeometry y="52" width="205" height="8" as="geometry" />
        </mxCell>
        <mxCell id="aUiP8YorQjEKPf9iPdD1-4" value="+ getTable(...): SQSSinkTable" style="text;strokeColor=none;fillColor=none;align=left;verticalAlign=top;spacingLeft=4;spacingRight=4;overflow=hidden;rotatable=0;points=[[0,0.5],[1,0.5]];portConstraint=eastwest;" parent="aUiP8YorQjEKPf9iPdD1-1" vertex="1">
          <mxGeometry y="60" width="205" height="26" as="geometry" />
        </mxCell>
        <mxCell id="aUiP8YorQjEKPf9iPdD1-40" value="Represents a table that supports only writes!" style="shape=note;whiteSpace=wrap;html=1;size=14;verticalAlign=top;align=left;spacingTop=-6;fontSize=10;fillColor=#fff2cc;strokeColor=#d6b656;" parent="1" vertex="1">
          <mxGeometry x="505" y="50" width="80" height="50" as="geometry" />
        </mxCell>
      </root>
    </mxGraphModel>
  </diagram>
</mxfile>
